<?xml version="1.0" standalone="no"?>
<!DOCTYPE svg PUBLIC "-//W3C//DTD SVG 20010904//EN"
 "http://www.w3.org/TR/2001/REC-SVG-20010904/DTD/svg10.dtd">
<svg version="1.0" xmlns="http://www.w3.org/2000/svg"
 width="341.000000pt" height="225.000000pt" viewBox="0 0 341.000000 225.000000"
 preserveAspectRatio="xMidYMid meet">
<metadata>
Created by potrace 1.16, written by Peter Selinger 2001-2019
</metadata>
<g transform="translate(0.000000,225.000000) scale(0.100000,-0.100000)"
fill="#000000" stroke="none">
<path d="M346 2083 c-3 -3 -6 -422 -6 -930 l0 -923 -31 0 c-38 0 -35 -24 4
-28 19 -2 27 -9 27 -23 0 -10 7 -19 15 -19 8 0 15 8 15 18 0 18 22 19 443 25
243 4 858 7 1367 7 509 0 935 3 948 6 90 24 -46 26 -1368 19 l-1390 -7 0 925
c0 509 -4 928 -9 931 -4 3 -11 3 -15 -1z"/>
<path d="M927 1974 c-15 -15 -6 -25 51 -52 31 -15 86 -44 122 -64 85 -48 195
-84 300 -98 221 -30 220 -30 350 -97 167 -87 267 -119 425 -138 72 -8 136 -15
143 -15 15 0 16 -42 0 -58 -8 -8 -8 -15 -3 -21 12 -11 521 -75 538 -67 7 2 1
8 -13 12 -25 7 -104 47 -336 170 -66 35 -124 64 -127 64 -4 0 -10 -15 -15 -32
-4 -18 -12 -32 -18 -31 -5 1 -45 8 -89 17 -44 8 -123 20 -175 26 -79 9 -108
18 -175 52 -214 111 -297 141 -431 159 -179 23 -234 37 -303 77 -120 72 -226
113 -244 96z"/>
<path d="M879 1825 c-3 -2 -56 -5 -117 -6 -119 -1 -126 -4 -102 -50 12 -21 14
-954 3 -1010 -5 -28 -7 -30 -14 -14 -5 13 -8 -3 -8 -42 -1 -105 74 -351 111
-365 7 -3 76 -6 153 -7 155 -2 166 2 183 65 5 16 5 304 2 639 l-6 610 -33 93
-34 92 -67 0 c-36 0 -69 -2 -71 -5z m175 -214 c3 -4 0 -28 -7 -52 l-13 -44
-144 -3 -145 -2 -17 42 c-23 55 -23 56 5 61 43 8 316 7 321 -2z"/>
<path d="M1465 1529 c-184 -7 -197 -10 -187 -53 4 -17 7 -58 7 -91 -2 -513 -7
-758 -15 -745 -7 11 -10 0 -10 -39 0 -64 51 -236 81 -275 l20 -26 149 0 c148
0 150 0 166 25 14 22 15 79 12 542 -2 395 -6 523 -16 538 -7 11 -22 45 -35 75
l-22 55 -150 -6z m188 -175 c3 -3 0 -22 -7 -42 l-13 -37 -140 -3 -141 -3 -6
25 c-3 13 -9 31 -12 39 -3 10 1 17 13 20 27 7 299 8 306 1z"/>
<path d="M1943 1312 c-73 -1 -133 -6 -133 -11 0 -4 6 -28 13 -52 15 -55 12
-694 -3 -684 -33 21 11 -184 54 -247 l22 -33 130 -3 c121 -2 132 -1 149 18 18
20 19 42 17 398 -3 443 -5 477 -40 559 -23 54 -29 62 -51 60 -14 -1 -85 -3
-158 -5z m217 -160 c0 -44 -19 -51 -148 -54 l-123 -3 -8 30 c-4 17 -6 33 -4
38 2 4 67 7 144 7 127 0 139 -2 139 -18z"/>
<path d="M2649 1125 c-3 -2 -74 -5 -157 -6 -115 0 -151 -4 -143 -12 13 -17 15
-66 13 -360 -1 -169 -5 -256 -12 -252 -19 12 -10 -69 15 -136 42 -108 43 -109
200 -109 111 0 136 3 150 17 15 14 16 52 13 382 l-4 366 -33 58 c-34 59 -35
60 -42 52z m42 -152 l-7 -28 -128 -5 -128 -5 -14 27 c-8 15 -14 29 -14 33 0 3
67 5 149 5 l149 0 -7 -27z"/>
</g>
</svg>
