<?xml version="1.0" encoding="UTF-8" standalone="no"?>
<!-- Created with Inkscape (http://www.inkscape.org/) -->

<svg
   xmlns:dc="http://purl.org/dc/elements/1.1/"
   xmlns:cc="http://creativecommons.org/ns#"
   xmlns:rdf="http://www.w3.org/1999/02/22-rdf-syntax-ns#"
   xmlns:svg="http://www.w3.org/2000/svg"
   xmlns="http://www.w3.org/2000/svg"
   xmlns:xlink="http://www.w3.org/1999/xlink"
   xmlns:sodipodi="http://sodipodi.sourceforge.net/DTD/sodipodi-0.dtd"
   xmlns:inkscape="http://www.inkscape.org/namespaces/inkscape"
   width="210mm"
   height="297mm"
   id="svg2"
   version="1.1"
   inkscape:version="0.48.1 "
   sodipodi:docname="tierra.svg">
  <defs
     id="defs4">
    <linearGradient
       id="linearGradient3862">
      <stop
         style="stop-color:#008f08;stop-opacity:1;"
         offset="0"
         id="stop3864" />
      <stop
         style="stop-color:#237326;stop-opacity:1;"
         offset="1"
         id="stop3866" />
    </linearGradient>
    <linearGradient
       id="linearGradient3889">
      <stop
         style="stop-color:#2c6e2c;stop-opacity:1;"
         offset="0"
         id="stop3891" />
      <stop
         style="stop-color:#577c17;stop-opacity:1;"
         offset="1"
         id="stop3893" />
    </linearGradient>
    <linearGradient
       id="linearGradient3873">
      <stop
         style="stop-color:#243106;stop-opacity:1;"
         offset="0"
         id="stop3875" />
      <stop
         style="stop-color:#1c781b;stop-opacity:1;"
         offset="1"
         id="stop3877" />
    </linearGradient>
    <linearGradient
       id="linearGradient3839">
      <stop
         style="stop-color:#049504;stop-opacity:1;"
         offset="0"
         id="stop3841" />
      <stop
         style="stop-color:#898506;stop-opacity:1;"
         offset="1"
         id="stop3843" />
    </linearGradient>
    <linearGradient
       id="linearGradient3831">
      <stop
         style="stop-color:#767676;stop-opacity:1;"
         offset="0"
         id="stop3833" />
      <stop
         style="stop-color:#767676;stop-opacity:0;"
         offset="1"
         id="stop3835" />
    </linearGradient>
    <linearGradient
       id="linearGradient3817">
      <stop
         style="stop-color:#6caf32;stop-opacity:1;"
         offset="0"
         id="stop3819" />
      <stop
         style="stop-color:#767676;stop-opacity:0;"
         offset="1"
         id="stop3821" />
    </linearGradient>
    <filter
       inkscape:collect="always"
       id="filter3785">
      <feGaussianBlur
         inkscape:collect="always"
         stdDeviation="0.29452437"
         id="feGaussianBlur3787" />
    </filter>
    <filter
       inkscape:collect="always"
       id="filter3793">
      <feGaussianBlur
         inkscape:collect="always"
         stdDeviation="0.56527091"
         id="feGaussianBlur3795" />
    </filter>
    <filter
       inkscape:collect="always"
       id="filter3801">
      <feGaussianBlur
         inkscape:collect="always"
         stdDeviation="0.35392397"
         id="feGaussianBlur3803" />
    </filter>
    <linearGradient
       inkscape:collect="always"
       xlink:href="#linearGradient3839"
       id="linearGradient3845"
       x1="554.99945"
       y1="360.01759"
       x2="693.98531"
       y2="360.01759"
       gradientUnits="userSpaceOnUse" />
    <filter
       inkscape:collect="always"
       id="filter3855">
      <feGaussianBlur
         inkscape:collect="always"
         stdDeviation="0.94126002"
         id="feGaussianBlur3857" />
    </filter>
    <filter
       inkscape:collect="always"
       id="filter3885">
      <feGaussianBlur
         inkscape:collect="always"
         stdDeviation="1.206374"
         id="feGaussianBlur3887" />
    </filter>
    <filter
       inkscape:collect="always"
       id="filter3916">
      <feGaussianBlur
         inkscape:collect="always"
         stdDeviation="0.24931095"
         id="feGaussianBlur3918" />
    </filter>
    <linearGradient
       inkscape:collect="always"
       xlink:href="#linearGradient3862"
       id="linearGradient3868"
       x1="138.75278"
       y1="521.5788"
       x2="703.86853"
       y2="521.5788"
       gradientUnits="userSpaceOnUse" />
  </defs>
  <sodipodi:namedview
     id="base"
     pagecolor="#ffffff"
     bordercolor="#666666"
     borderopacity="1.0"
     inkscape:pageopacity="0.0"
     inkscape:pageshadow="2"
     inkscape:zoom="0.70375622"
     inkscape:cx="533.09728"
     inkscape:cy="549.59854"
     inkscape:document-units="px"
     inkscape:current-layer="layer1"
     showgrid="false"
     inkscape:window-width="1366"
     inkscape:window-height="706"
     inkscape:window-x="-8"
     inkscape:window-y="-8"
     inkscape:window-maximized="1" />
  <metadata
     id="metadata7">
    <rdf:RDF>
      <cc:Work
         rdf:about="">
        <dc:format>image/svg+xml</dc:format>
        <dc:type
           rdf:resource="http://purl.org/dc/dcmitype/StillImage" />
        <dc:title />
      </cc:Work>
    </rdf:RDF>
  </metadata>
  <g
     inkscape:label="Capa 1"
     inkscape:groupmode="layer"
     id="layer1">
    <path
       sodipodi:type="arc"
       style="fill:#003380;fill-opacity:1;fill-rule:evenodd;stroke:none"
       id="path3003"
       sodipodi:cx="549.59296"
       sodipodi:cy="701.63062"
       sodipodi:rx="346.64539"
       sodipodi:ry="346.64539"
       d="m 896.23834,701.63062 a 346.64539,346.64539 0 1 1 -0.0212,-3.83528"
       sodipodi:start="0"
       sodipodi:end="6.2721211"
       sodipodi:open="true"
       transform="translate(-186.60282,-175.7063)" />
    <path
       sodipodi:type="arc"
       style="fill:#808080;fill-opacity:1;fill-rule:evenodd;stroke:none"
       id="path3005"
       sodipodi:cx="117.81857"
       sodipodi:cy="147.2704"
       sodipodi:rx="41.542965"
       sodipodi:ry="41.542965"
       d="m 159.36154,147.2704 a 41.542965,41.542965 0 1 1 -0.003,-0.45963"
       sodipodi:start="0"
       sodipodi:end="6.2721211"
       sodipodi:open="true"
       transform="translate(5.4482575,-1.3620644)" />
    <path
       style="fill:#757575;stroke:none;stroke-width:1px;stroke-linecap:butt;stroke-linejoin:miter;stroke-opacity:1;fill-opacity:1;filter:url(#filter3793)"
       d="m 138.93057,109.81363 c 5.93955,1.35366 6.47709,5.11503 8.17238,6.81032 0.68104,0.68104 3.40516,-0.68103 4.0862,0 0.32104,0.32105 0.45402,1.36207 0,1.36207 -0.45403,0 -0.45403,-1.36207 0,-1.36207 1.43574,0 1.36206,5.52194 1.36206,4.0862 0,-8.55583 0,8.23351 0,9.53445 0,2.65266 1.7907,6.596 -1.36206,8.17238 -0.72453,0.36227 -1.9996,-0.36226 -2.72413,0 -2.00572,1.00287 -1.80717,1.80717 -2.72413,2.72413 -1.61279,1.61279 -5.68204,-2.15998 -6.81032,-2.72413 -1.21827,-0.60913 -2.7648,0.33035 -4.0862,0 -3.27574,-0.81893 -3.44007,-2.72412 -6.81032,-2.72412 -4.28527,0 -2.9096,-1.26933 -5.44826,0 -1.17021,0.5851 0.99717,7.17521 0,8.17238 -0.91577,0.91578 -5.0999,-1.01371 -5.44825,-1.36206 -0.36055,-0.36055 0,-3.52535 0,-4.0862 0,-2.59405 0.15991,-6.89027 2.72413,-8.17238 0.81217,-0.40609 2.08204,0.64208 2.72412,0 0.32105,-0.32104 -0.32104,-1.04102 0,-1.36207 3.10808,-3.10808 13.41623,5.65268 16.34478,2.72413 0.91225,-0.91225 1.40796,-12.21268 1.36206,-12.25858 -0.98966,-0.98966 -5.55758,-1.03409 -5.44826,-1.36206 0.96313,-2.88938 2.72413,-5.44826 4.0862,-8.17239 z"
       id="path3007"
       inkscape:connector-curvature="0" />
    <path
       style="fill:#767676;stroke:none;stroke-width:1px;stroke-linecap:butt;stroke-linejoin:miter;stroke-opacity:1;fill-opacity:1;filter:url(#filter3801)"
       d="m 114.41341,158.84795 c 0,1.81609 0,3.63217 0,5.44826 0,1.86891 -0.71505,4.4097 1.36206,5.44826 1.09662,0.5483 5.74668,-1.2626 9.53445,0 2.27548,0.75849 9.20768,3.37766 10.89652,0 1.03816,-2.07633 -1.70973,-7.15799 -2.72413,-8.17239 -0.64208,-0.64208 -1.91195,0.40609 -2.72413,0 -1.31175,-0.65588 -3.55432,-5.18232 -6.81032,-6.81032 -3.09268,-1.54634 -6.56948,2.30721 -9.53445,4.08619 z"
       id="path3009"
       inkscape:connector-curvature="0" />
    <path
       style="fill:#676767;stroke:none;stroke-width:1px;stroke-linecap:butt;stroke-linejoin:miter;stroke-opacity:1;fill-opacity:1;filter:url(#filter3785)"
       d="m 106.24102,122.07221 c -2.7105,0.45767 -6.695142,1.13171 -8.172385,4.0862 -0.397303,0.7946 -0.543772,8.99067 0,9.53445 0.360547,0.36054 3.525345,0 4.086195,0 1.87031,0 2.27132,1.96702 4.08619,1.36206 6.04453,-2.01484 1.46343,-11.32413 0,-14.98271 z"
       id="path3011"
       inkscape:connector-curvature="0" />
    <path
       style="fill:#015905;fill-opacity:1;stroke:none;filter:url(#filter3885)"
       d="m 243.80952,205.15814 c -8.11996,4.96964 -20.71055,10.09364 -24.51716,17.70684 -0.40608,0.81217 0.40609,1.91195 0,2.72412 -5.35888,10.71778 4.10435,46.29204 -1.36206,51.75845 -1.36015,1.36015 -6.29664,3.14832 -8.17239,4.08619 -2.46667,1.23334 -5.66274,7.02481 -6.81032,8.17239 -0.32104,0.32104 -1.04102,-0.32104 -1.36206,0 -0.88902,0.88902 -2.10636,4.21272 -2.72413,5.44826 -2.69586,5.39171 -7.75953,9.75439 -10.89652,14.98271 -0.98979,1.64965 -2.46159,5.18572 -4.08619,6.81032 -6.89306,6.89306 -20.11418,17.07327 -24.51716,25.87922 -1.46884,2.93769 0.10678,5.2347 -1.36206,8.17239 -1.7,3.39999 -3.85681,6.35156 -5.44826,9.53445 -0.62529,1.25058 -1.36206,14.81105 -1.36206,17.70684 0,2.31707 -0.16598,9.70042 -1.36207,10.89651 -0.32104,0.32104 -1.04102,-0.32104 -1.36206,0 -0.62964,0.62963 0.41119,3.26381 0,4.08619 -0.28715,0.5743 -1.07492,0.78777 -1.36207,1.36207 -0.72643,1.45287 0.72644,3.99539 0,5.44826 -0.57429,1.14859 -2.14983,1.57553 -2.72413,2.72412 -0.72643,1.45287 0.72644,3.99539 0,5.44826 -1.6831,3.36621 -1.36206,-0.47015 -1.36206,2.72413 0,0.88007 -0.32464,5.12362 0,5.44826 0.9386,0.9386 5.39529,-0.47168 6.81032,0 2.94584,0.98194 3.78276,1.36206 6.81032,1.36206 8.89453,0 19.74784,0.004 24.51716,-9.53445 1.12618,-2.25235 0.21956,-5.88737 1.36207,-8.17238 0.20304,-0.40609 1.04102,0.32104 1.36206,0 1.36207,-1.36207 -1.36206,-6.81033 0,-8.17239 0.32104,-0.32104 1.04102,0.32104 1.36207,0 1.23002,-1.23002 1.91269,-5.18745 2.72412,-6.81032 1.07876,-2.15752 15.41708,-8.60676 17.70684,-10.89652 0.32104,-0.32104 -0.32104,-1.04102 0,-1.36206 0.90235,-0.90235 6.84676,-2.72413 8.17239,-2.72413 1.87483,0 12.23017,-12.28699 16.34477,-8.17239 0.86397,0.86398 -0.56702,4.31422 0,5.44826 4.40783,8.81567 -1.51566,30.86671 1.36206,39.49987 0.60016,1.80048 3.21811,3.71207 4.0862,5.44825 1.13495,2.26991 4.2188,4.48404 5.44826,8.17239 1.01748,3.05246 0.32096,6.41114 1.36206,9.53445 0.96312,2.88938 3.34751,5.21766 4.08619,8.17239 1.12712,4.50848 -0.0798,10.65707 1.36207,14.98271 0.58244,1.74731 2.14169,3.70094 2.72413,5.44825 1.54417,4.63253 -2.16501,12.01477 0,16.34478 2.31925,4.6385 3.83099,9.15165 6.81032,13.62064 5.08287,7.62431 21.00998,11.78875 28.60335,16.34477 3.00214,1.80128 2.52449,3.98638 5.44826,5.44826 1.42899,0.7145 5.72317,-1.08715 6.81032,0 2.81816,2.81816 -4.30652,-0.11016 1.36206,2.72413 0.40609,0.20304 1.04103,-0.32104 1.36207,0 0.40695,0.40695 -0.0438,5.2729 0,5.44826 1.45291,5.81166 1.23502,11.75042 2.72413,17.70683 0.46919,1.87679 -1.33268,8.20178 0,9.53445 2.53491,2.53492 8.11714,0.49085 10.89651,-1.36206 2.4822,-1.6548 4.43371,-0.17376 6.81032,-1.36207 2.00572,-1.00286 1.80717,-1.80716 2.72413,-2.72412 0.64209,-0.64209 1.91195,0.40609 2.72413,0 6.59159,-3.2958 23.29331,-12.97767 31.32748,-9.53445 5.81938,2.49401 17.28904,7.75458 21.79303,12.25857 5.53842,8.30763 -0.13615,1.25996 5.44826,5.44826 1.56478,1.17359 4.80674,4.88576 5.44826,6.81032 0.28715,0.86145 -0.40609,1.91195 0,2.72413 0.80911,1.61824 6.84045,-0.0301 4.08619,2.72413 -0.45402,0.45402 -2.00415,-1.36206 -1.36206,-1.36206 2.0633,0 5.71833,2.58909 8.17238,1.36206 2.74457,-1.37228 5.69104,-4.94931 8.17239,-6.81032 1.62435,-1.21827 3.75882,-1.59784 5.44826,-2.72413 1.50257,-1.00172 2.47709,-3.28164 4.08619,-4.08619 0.81218,-0.40609 2.08204,0.64208 2.72413,0 0.32104,-0.32104 -0.32104,-1.04102 0,-1.36207 2.56603,-2.56603 6.71046,2.35865 8.17238,2.72413 1.3214,0.33035 2.72413,0 4.0862,0 2.2701,0.45402 4.56438,0.80058 6.81032,1.36207 11.33717,2.83429 -1.64416,-0.094 6.81032,2.72413 1.08854,0.36284 4.67994,-0.76833 5.44826,0 1.28416,1.28416 0.57429,3.72536 0,5.44825 -0.20305,0.60914 -1.07492,0.78777 -1.36207,1.36207 -0.60913,1.21826 0.43073,2.79402 0,4.08619 -0.51115,1.53345 -3.2517,8.69996 -4.08619,9.53445 -0.32104,0.32104 -0.95597,-0.20304 -1.36206,0 -2.07777,1.03888 -3.41687,3.0705 -5.44826,4.08619 -1.08965,0.54483 -2.99654,-0.54482 -4.08619,0 -8.33693,4.16847 -19.60009,-1.09647 -29.96542,4.0862 -8.10741,4.0537 -5.16195,10.03758 -6.81032,14.98271 -1.64571,4.93713 -3.22474,9.17361 -5.44826,13.62064 -0.87467,1.74934 -0.4874,5.06098 -1.36206,6.81032 -0.5743,1.14859 -2.14984,1.57554 -2.72413,2.72413 -0.82196,1.64392 -4.20034,14.75442 -2.72413,17.70684 0.20304,0.40609 1.04102,-0.32104 1.36206,0 0.71787,0.71787 0.90805,1.81608 1.36207,2.72413 0.916,1.832 0.86419,4.81883 1.36206,6.81032 1.64433,6.57733 0.64728,-0.0675 2.72413,4.08619 0.20304,0.40609 0,0.90804 0,1.36207 0.45402,1.36206 0.62338,2.85505 1.36206,4.08619 0.6607,1.10116 2.14984,1.57553 2.72413,2.72413 0.40609,0.81218 -0.22023,1.84319 0,2.72413 2.29363,9.17451 0.021,0.021 2.72413,2.72412 0.97865,0.97865 1.64061,5.72681 2.72413,6.81033 0.83681,0.83681 3.17405,0.89984 4.08619,2.72413 0.20305,0.40608 -0.40609,1.15902 0,1.36206 3.62504,1.81252 20.02209,-0.59032 25.87923,1.36206 1.14869,0.3829 3.01057,-0.53781 4.08619,0 2.09283,1.04642 6.88929,3.52361 8.17239,5.44826 0.7964,1.19461 0.34684,3.07097 1.36206,4.08619 0.91696,0.91696 1.72127,0.71841 2.72413,2.72413 0.83717,1.67435 0.52489,3.77391 1.36206,5.44826 2.07685,4.1537 1.0798,-2.49114 2.72413,4.08619 0.56937,2.27748 -1.03468,6.10302 0,8.17239 1.47204,2.94407 2.58886,9.94027 1.36207,13.62064 -1.41715,4.25144 -0.90805,-0.45402 -2.72413,1.36207 -0.32104,0.32104 0.20304,0.95597 0,1.36206 -1.2481,2.49621 -4.86929,4.8693 -6.81032,6.81032 -1.80005,1.80005 -8.94677,6.99702 -9.53445,8.17239 -0.20305,0.40609 0.32104,1.04102 0,1.36207 -2.81816,2.81816 0.11016,-4.30653 -2.72413,1.36206 -0.20305,0.40609 0.32104,1.04102 0,1.36206 -2.19563,2.19563 -6.59065,5.00891 -8.17239,8.17239 -0.99947,1.99894 -5.72769,12.53801 -6.81032,13.62064 -1.81016,1.81016 -3.92611,2.05666 -5.44826,4.0862 -1.39653,1.86204 -2.55581,6.64201 -4.08619,8.17238 -3.40516,3.40516 -10.21548,3.40516 -13.62065,6.81033 -0.71787,0.71787 -0.54988,2.11499 -1.36206,2.72412 -1.14859,0.86145 -2.85505,0.62339 -4.08619,1.36207 -5.63346,3.38007 -10.57729,8.01277 -16.34478,10.89651 -1.7294,0.86471 -5.00008,-0.60341 -6.81032,0 -1.71356,0.57119 -3.43859,2.05424 -5.44826,2.72413 -1.59713,0.53238 -3.94827,-0.74999 -5.44825,0 -1.34874,0.67437 1.43006,1.32807 -1.36207,2.72413 -8.40879,4.2044 -7.10426,10.18443 -12.25858,13.62065 -2.46042,1.64028 -4.80048,5.68635 -8.17238,6.81032 -2.01264,0.67087 -5.27485,1.18865 -6.81032,2.72413 -0.64209,0.64208 0,3.63217 0,2.72412 0,-0.90804 0,-3.63217 0,-2.72412 0,2.72412 -1.92625,6.24613 0,8.17238 0.32104,0.32104 0.95597,-0.20304 1.36206,0 2.76464,1.38232 3.91264,5.2747 5.44826,6.81032 0.74497,0.74497 6.85398,4.78906 8.17238,5.44826 4.79235,2.39617 36.65462,-2.31048 43.58606,0 1.553,0.51767 2.5332,2.20647 4.0862,2.72413 0.86144,0.28715 1.91195,-0.40609 2.72413,0 0.40608,0.20304 -0.32105,1.04102 0,1.36206 0.89322,0.89323 12.36667,0.41799 13.62064,0 0.60913,-0.20304 0.75293,-1.15902 1.36206,-1.36206 1.65511,-0.5517 3.85022,-1.36206 5.44826,-1.36206 1.36207,0 5.44826,0 4.08619,0 -9.60729,0 8.54101,0.86534 9.53445,1.36206 0.40609,0.20304 -0.32104,1.04102 0,1.36206 0.36055,0.36055 3.52535,0 4.0862,0 4.58147,0 12.08358,1.4204 16.34477,0 2.63586,-0.87862 4.58609,-1.61201 6.81032,-2.72412 1.13404,-0.56702 4.58429,0.86397 5.44826,0 0.32104,-0.32105 -0.32104,-1.04103 0,-1.36207 0.64208,-0.64208 1.91195,0.40609 2.72413,0 7.95961,-3.9798 18.00191,-2.31929 28.60335,-4.08619 0.89569,-0.14928 1.91195,0.40609 2.72413,0 0.40609,-0.20305 -0.40609,-1.15902 0,-1.36207 1.45287,-0.72643 3.99539,0.72644 5.44826,0 1.66928,-0.83464 7.36822,-4.64409 8.17238,-5.44825 3.30819,-3.30819 -0.40503,-2.00009 2.72413,-4.0862 0.76062,-0.50708 4.53731,-3.78254 5.44826,-4.08619 0.86144,-0.28715 1.91195,0.40609 2.72413,0 0.90804,-0.45402 0.51735,-2.16098 1.36206,-2.72413 1.68944,-1.12629 4.01252,-1.28839 5.44826,-2.72413 1.00957,-1.00956 1.03353,-2.39559 2.72413,-4.08619 0.32104,-0.32104 0.95597,0.20304 1.36206,0 0.39644,-0.19822 11.86801,-12.93714 12.25858,-13.62064 0.92876,-1.62534 0.62466,-3.72764 1.36207,-5.44826 1.28969,-3.00928 3.98408,-5.24404 5.44825,-8.17239 5.82064,-11.64126 -2.45908,3.29106 1.36207,-8.17238 0.8985,-2.6955 2.95479,-4.54752 4.08619,-6.81033 1.76229,-3.52458 0,-23.29935 0,-28.60335 0,-3.85792 -1.70438,-12.936 0,-16.34477 2.28512,-4.57024 4.15587,-9.81314 5.44826,-14.98271 2.12504,-8.50017 -1.51316,-25.12264 8.17239,-29.96542 1.92707,-0.96353 6.65363,0.15669 8.17238,-1.36206 0.32104,-0.32104 -0.32104,-1.04102 0,-1.36206 1.00957,-1.00957 3.75766,0.32853 5.44826,-1.36207 0.32104,-0.32104 -0.32104,-1.04102 0,-1.36206 0.68103,-0.68103 3.40516,0.68103 4.08619,0 0.32104,-0.32104 -0.32104,-1.04103 0,-1.36207 0.68104,-0.68103 3.40516,0.68104 4.0862,0 0.68103,-0.68103 0.68103,-2.04309 1.36206,-2.72413 0.62963,-0.62963 3.26382,0.41119 4.08619,0 0.5743,-0.28714 0.78777,-1.07491 1.36207,-1.36206 2.90574,-1.45287 7.99078,1.45287 10.89651,0 1.58663,-0.79332 2.49956,-1.93081 4.0862,-2.72413 1.07562,-0.53781 2.9375,0.3829 4.08619,0 2.54106,-0.84702 3.39302,-1.69651 5.44826,-2.72413 5.24965,-2.62482 31.43407,2.65307 35.41367,0 11.3698,-7.57986 21.21562,-19.27614 27.24129,-31.32748 0.84404,-1.68807 1.00963,-11.60137 0,-13.62064 -0.45402,-0.90805 -2.27011,-0.45402 -2.72413,-1.36207 0,-6.2005 0.64208,-0.0779 -1.36206,-4.08619 -0.93278,-1.86556 -1.06635,-14.21209 0,-16.34477 0.2151,-0.43021 2.63485,-3.99692 2.72412,-4.0862 0.32105,-0.32104 1.15902,0.40609 1.36207,0 0.40609,-0.81217 -0.40609,-1.91195 0,-2.72412 0.20304,-0.40609 1.04102,0.32104 1.36206,0 1.01523,-1.01523 0.90805,-2.72413 1.36207,-4.0862 2.31551,-6.94653 -2.31551,-16.20856 0,-23.15509 0.70889,-2.12667 4.31104,-9.1907 5.44825,-10.89652 0.25185,-0.37777 0.90805,0 1.36207,0 0.45402,-0.45402 1.07491,-0.78776 1.36206,-1.36206 0.40609,-0.81218 -0.64208,-2.08205 0,-2.72413 0.91696,-0.91696 1.72127,-0.71841 2.72413,-2.72413 2.75672,-5.51343 -2.41604,-14.36654 -4.08619,-17.70684 -2.13259,-4.26516 0.75706,-12.10651 -1.36207,-16.34477 -1.38376,-2.76754 -21.2171,-0.57592 -21.79303,0 -0.32104,0.32104 0.32105,1.04102 0,1.36207 -0.86397,0.86397 -4.31421,-0.56702 -5.44825,0 -1.08972,0.54485 -1.63442,2.17927 -2.72413,2.72412 -0.81218,0.40609 -1.91195,-0.40608 -2.72413,0 -0.90804,0.45403 -2.00626,0.6442 -2.72413,1.36207 -0.32104,0.32104 0.40609,1.15902 0,1.36206 -1.21827,0.60914 -3.12307,-0.96312 -4.08619,0 -1.24907,1.24907 -0.13735,1.40785 -4.0862,2.72413 -2.08884,0.69628 -16.78341,-0.92342 -17.70683,0 -0.32104,0.32104 0.40609,1.15902 0,1.36207 -0.81218,0.40609 -1.86269,-0.28715 -2.72413,0 -1.21827,0.40609 -1.57554,2.14983 -2.72413,2.72413 -0.82238,0.41118 -3.45656,-0.62964 -4.08619,0 -0.91696,0.91696 6.38632,-8.22537 -2.72413,2.72412 -4.15575,4.99463 -15.98156,-10.01046 -21.79303,-7.10473 -3.1284,1.5642 -7.13117,11.61165 -10.89652,12.55299 -1.68423,0.42106 -3.70415,0.49508 -5.69107,0.60982 -1.86606,0.10776 -3.70301,0.25144 -5.20544,0.75225 -2.51152,0.83718 -4.44244,2.90225 -6.81032,4.08619 -2.58411,1.29205 -6.78143,2.02865 -8.17239,2.72413 -1.14859,0.57429 -1.57554,2.14983 -2.72413,2.72413 -0.81218,0.40609 -1.91195,-0.40609 -2.72413,0 -4.67736,2.33868 -9.05219,4.08619 -14.98271,4.08619 -5.32083,0 -0.14379,-0.40609 -5.44825,1.36206 -5.201,1.73367 -13.60473,0 -19.0689,0 -0.90805,0 -2.08205,0.64209 -2.72413,0 -1.18718,-1.18717 2.16539,-3.52745 2.72413,-4.08619 5.32166,-5.32166 4.72098,-4.6285 6.81032,-10.89651 0.22308,-0.66925 2.6821,-2.76616 1.36206,-4.0862 -2.87911,-2.8791 -10.05121,-2.12922 -13.62064,-2.72413 -1.41621,-0.23603 -2.67833,-1.08049 -4.0862,-1.36206 -7.10748,-1.4215 -16.29781,2.28576 -23.15509,0 -5.73355,-1.91118 -0.89387,-9.96013 -2.72413,-13.62064 -1.49677,-2.99355 -3.93413,0.15206 -5.44826,-1.36207 -0.32104,-0.32104 0.32105,-1.04102 0,-1.36206 -0.86397,-0.86398 -4.31421,0.56702 -5.44825,0 -0.5743,-0.28715 -0.78777,-1.07492 -1.36207,-1.36207 -1.11274,-0.55637 -11.7597,-0.49887 -12.25858,0 -0.32104,0.32104 0.32104,1.04103 0,1.36207 -1.36206,1.36206 -6.81032,-1.36207 -8.17238,0 -0.68104,0.68103 -0.68104,2.04309 -1.36207,2.72413 -0.64208,0.64208 -2.08204,-0.64209 -2.72413,0 -0.32104,0.32104 0.32104,1.04102 0,1.36206 -0.89225,0.89225 -6.67779,3.58799 -8.17238,4.08619 -0.86145,0.28715 -1.81609,0 -2.72413,0 -0.45402,0.45403 -1.98498,1.20634 -1.36207,1.36207 6.26282,1.5657 21.81442,-1.37276 16.34478,1.36206 -1.37236,0.68618 -27.04605,0.5191 -28.60336,0 -8.27449,-2.75816 1.14855,-4.08619 -12.25858,-4.08619 -3.19428,0 0.64209,0.32104 -2.72412,-1.36207 -2.17931,-1.08965 -5.99309,1.08966 -8.17239,0 -2.1996,-1.0998 -4.53287,-1.96497 -6.81032,-2.72412 -7.70488,-2.5683 -17.28349,2.25477 -24.51716,-1.36207 -2.1793,-1.08965 -5.99308,1.08965 -8.17239,0 -0.40609,-0.20304 0.40609,-1.15902 0,-1.36206 -1.21826,-0.60914 -3.12307,0.96312 -4.08619,0 -1.29932,-1.29932 1.01925,-6.64351 0,-8.17239 -1.76429,-2.64644 -4.88318,-2.15905 -6.81032,-4.08619 -0.32104,-0.32104 0.32104,-1.04102 0,-1.36207 -0.64209,-0.64208 -1.91195,0.40609 -2.72413,0 -2.72413,-1.36206 -4.08619,-5.44825 -6.81032,-6.81032 -0.40609,-0.20304 -1.15902,0.40609 -1.36207,0 -0.40609,-0.81218 0.40609,-1.91195 0,-2.72413 -0.20304,-0.40609 -1.15902,0.40609 -1.36206,0 0,-7.71836 0.90804,-0.45402 -1.36207,-2.72413 -2.44036,-2.44036 -1.68752,-10.51083 -2.72412,-13.62064 -0.87007,-2.61019 -7.67912,-17.33132 -6.81033,-19.0689 0.24736,-0.49471 13.42464,-5.25225 14.98271,-6.81032 1.58908,-1.58908 -0.22701,-6.58331 1.36207,-8.17239 0.32104,-0.32104 0.90804,0 1.36206,0 0.45402,-0.45402 1.0059,-0.82782 1.36206,-1.36206 1.84375,-2.76563 2.587,-4.66438 5.44826,-6.81033 2.96196,-2.22147 17.89979,-6.03281 21.79303,-4.08619 1.1486,0.5743 1.57554,2.14983 2.72413,2.72413 0.81218,0.40609 2.08205,-0.64208 2.72413,0 0.64208,0.64208 -0.40609,1.91195 0,2.72413 4.49466,8.98933 -0.18373,22.16048 -4.08619,29.96542 -0.41275,0.82549 -0.7913,3.51542 -1.36207,4.08619 -0.32104,0.32104 -1.04102,-0.32104 -1.36206,0 -2.81816,2.81816 4.30652,-0.11017 -1.36207,2.72413 -0.40609,0.20304 -1.36206,-0.45402 -1.36206,0 0,2.16448 13.27115,2.72413 16.34477,2.72413 2.22045,0 5.23766,-3.9809 8.17239,-5.44826 0.81218,-0.40609 2.08204,0.64208 2.72413,0 0.32104,-0.32104 -0.20305,-0.95598 0,-1.36207 1.11035,-2.2207 4.28824,-2.92618 5.44825,-4.08619 0.64209,-0.64208 -0.64208,-2.08204 0,-2.72413 0.32105,-0.32104 1.04103,0.32104 1.36207,0 0.64208,-0.64208 -0.40609,-1.91195 0,-2.72413 0.79331,-1.58663 1.93081,-2.49956 2.72413,-4.08619 2.54252,-5.08504 -2.54252,-13.98386 0,-19.0689 1.06862,-2.13724 2.30698,-5.33763 1.36206,-8.17239 -0.51014,-1.53043 -4.56827,-7.73239 -5.44826,-8.17238 -0.40608,-0.20305 -1.04102,0.32104 -1.36206,0 -0.83681,-0.83682 -0.89984,-3.17405 -2.72413,-4.0862 -1.81608,-0.90804 -4.99423,0.90805 -6.81032,0 -2.90998,-1.45499 -1.44852,-4.17264 -2.72413,-5.44825 -0.91696,-0.91696 -1.72127,-0.71841 -2.72413,-2.72413 -1.88547,-3.77095 1.2953,-10.76299 2.72413,-13.62065 0.60913,-1.21826 -0.60913,-2.86792 0,-4.08619 0.20305,-0.40609 1.04102,0.32104 1.36206,0 1.01123,-1.01122 0,-9.05763 0,-10.89651 0,-3.26227 -1.60261,-8.89403 -2.72412,-12.25858 -0.64421,-1.93263 0.90338,-5.00355 0,-6.81033 -0.5743,-1.14859 -2.31804,-1.50586 -2.72413,-2.72412 -1.06882,-3.20647 0,-8.89679 0,-12.25858 0,-0.90805 -0.64209,-2.08205 0,-2.72413 2.30969,-2.30969 12.73004,-5.91972 14.98271,-8.17239 0.46359,-0.46359 0.33867,-7.49504 0,-8.17239 -0.5743,-1.14859 -2.14984,-1.57553 -2.72413,-2.72412 -0.58545,-1.17089 -0.5523,-20.13616 0,-21.79303 0.11798,-0.35397 2.72248,-6.80868 2.72413,-6.81033 3.30818,-3.30818 2.00008,0.40504 4.08619,-2.72413 0.56314,-0.84471 0.64419,-2.00625 1.36206,-2.72412 1.65971,-1.65971 5.15062,-2.42649 6.81032,-4.0862 0.85891,-0.8589 4.28672,-6.22955 5.44826,-6.81032 0.81218,-0.40609 1.91195,0.40609 2.72413,0 1.14859,-0.5743 1.57554,-2.14983 2.72413,-2.72413 1.08965,-0.54482 2.99654,0.54483 4.08619,0 3.03686,-1.51843 6.58197,-2.60995 9.53445,-4.08619 1.53565,-0.76783 5.14756,0 6.81033,0 3.66966,0 7.70531,-0.46707 9.53445,1.36206 0.32104,0.32105 -0.32105,1.04103 0,1.36207 2.81816,2.81816 -0.11017,-4.30652 2.72413,1.36206 0.77052,1.54106 0.26311,3.25037 1.36206,5.44826 0.54483,1.08965 -0.54483,2.99654 0,4.08619 0.66544,1.33088 23.95388,2.32474 25.87922,1.36207 0.40609,-0.20305 -0.32104,-1.04103 0,-1.36207 0.68103,-0.68103 2.0431,-0.68103 2.72413,-1.36206 1.82893,-1.82893 5.56069,-19.4062 6.81032,-23.1551 1.29745,-3.89235 4.28475,-5.6468 6.81033,-8.17238 2.81815,-2.81816 -4.30653,0.11016 1.36206,-2.72413 3.44058,-1.72029 12.51456,0 16.34477,0 3.01937,0 7.52044,2.39815 10.89652,4.08619 1.69831,0.84916 6.62009,3.70575 8.17238,6.81032 0.70247,1.40493 0.80139,3.12483 2.72413,4.0862 1.08965,0.54482 2.99654,-0.54483 4.0862,0 1.91457,0.95729 14.72622,4.34267 16.34477,2.72413 0.68103,-0.68104 0.68103,-2.0431 1.36206,-2.72413 0.50487,-0.50487 4.60677,-0.94132 5.44826,-1.36207 1.1375,-0.56875 2.55543,-4.00184 2.72413,-4.08619 1.63293,-0.81646 4.76249,-1.36206 6.81032,-1.36206 0.83119,0 4.91755,-0.53072 5.44826,0 0.45402,0.45402 0.90804,3.63217 1.36206,4.08619 0.71941,0.71941 9.53445,0.41964 9.53445,-1.36207"
       id="path3811"
       inkscape:connector-curvature="0"
       sodipodi:nodetypes="cssssssssssssssssssssssssscsscsssssssssssssssssssscssssssscsssssssssscscsssssssssssssssssssscssssscsssssssssssssccsssssssssssssssssssssssssscssssssssscsssscsssssssssssssssssssssssssscsssssssscsccscsssscssssssssscscssssscsssssssssssssssssssssscssssssssscssssssssscssscscsscssssscsssssssssssssssscssssscsssssscsssssssssscssssssssssccsssssssssssssssssssssc" />
    <path
       style="fill:url(#linearGradient3845);fill-opacity:1;stroke:#000000;filter:url(#filter3855);stroke-opacity:1"
       d="m 618.37723,292.33026 c 1.81608,0.90804 6.3563,0.90804 5.44826,2.72413 -0.90805,1.81608 -6.3563,-4.54022 -5.44826,-2.72413 2.28154,4.56309 9.23062,5.89882 10.89651,10.89651 0.43073,1.29217 -0.60913,2.86793 0,4.0862 1.00286,2.00572 1.80717,1.80717 2.72413,2.72413 0.68103,0.68103 -0.68103,3.40516 0,4.08619 0.32104,0.32104 1.04102,-0.32104 1.36207,0 0.78945,0.78945 1.93467,4.65881 2.72412,5.44826 0.68104,0.68103 2.0431,0.68103 2.72413,1.36206 0.64209,0.64208 -0.40609,1.91195 0,2.72413 0.5743,1.14859 2.14984,1.57554 2.72413,2.72413 0.41275,0.82549 0.7913,3.51543 1.36207,4.08619 0.32104,0.32104 1.04102,-0.32104 1.36206,0 0.64208,0.64209 -0.40609,1.91195 0,2.72413 1.39975,2.79949 2.67354,5.34708 4.08619,8.17239 0.40609,0.81218 -0.64208,2.08204 0,2.72413 0.32105,0.32104 1.04103,-0.32105 1.36207,0 0.64208,0.64208 -0.64208,2.08204 0,2.72412 0.32104,0.32105 1.04102,-0.32104 1.36206,0 0.83682,0.83682 0.89984,3.17405 2.72413,4.0862 0.81218,0.40609 2.08205,-0.64209 2.72413,0 1.16001,1.16001 1.86549,4.3379 4.08619,5.44826 0.40609,0.20304 1.04103,-0.32105 1.36207,0 1.21417,1.21417 0.63879,4.00171 1.36206,5.44825 0.5743,1.1486 2.14983,1.57554 2.72413,2.72413 0.86455,1.72909 1.1493,5.23549 2.72413,6.81032 0.32104,0.32104 1.04102,-0.32104 1.36206,0 0.58355,0.58354 3.50266,4.86472 4.0862,5.44826 0.32104,0.32104 1.04102,-0.32104 1.36206,0 0.64209,0.64208 -0.40609,1.91195 0,2.72413 0.5743,1.14859 2.14983,1.57553 2.72413,2.72413 2.40421,4.80842 -2.73821,13.60656 1.36207,17.70684 0.89294,0.89294 4.76586,0.67966 5.44825,1.36206 2.81816,2.81816 -4.30652,-0.11016 1.36207,2.72413 1.71195,0.85597 4.34654,1.88276 5.44825,4.08619 0.54483,1.08965 -0.54482,2.99654 0,4.08619 3.16621,6.33241 2.28274,20.3931 0,27.24129 -0.25678,0.77035 9.07274,-7.82843 0,4.0862 -4.06536,5.33877 13.42241,18.73424 7.21473,15.63041 -3.31991,-1.65996 -39.55974,5.68379 -43.40164,5.68379 -1.96338,0 -23.00382,-16.48792 -25.10598,-18.59008 -2.0611,-2.06109 5.53138,-20.26471 2.72413,-25.87922 -0.5743,-1.14859 -2.14984,-1.57553 -2.72413,-2.72413 -1.021,-2.04199 -2.60776,-8.05602 -4.0862,-9.53445 -0.71787,-0.71787 -2.00625,-0.64419 -2.72412,-1.36206 -2.81816,-2.81816 5.72747,31.37098 -1.36207,-2.72413 -1.00302,-4.82372 -24.47157,-18.91884 -26.23252,-22.44073 -2.39847,-4.79694 10.42561,4.74196 7.16362,-8.88675 -1.19972,-5.01246 -7.03616,-1.75904 -10.89652,-2.72413 -2.50802,-0.62701 -4.67859,-2.01356 -6.81032,-2.72413 -3.67757,-1.22586 -8.581,1.22586 -12.25858,0 -1.74731,-0.58244 -3.70094,-2.14169 -5.44825,-2.72413 -5.07753,-1.69251 -9.6152,1.20057 -12.25858,-4.08619 -0.91369,-1.82737 -1.01256,-14.31965 0,-16.34477 0.20304,-0.40609 1.04102,0.32104 1.36206,0 0.56104,-0.56104 1.05938,-3.17815 1.36207,-4.0862 0.33172,-0.99518 6.89784,-10.25924 8.17238,-10.89651 0.72695,-0.36348 1.99718,0.36347 2.72413,0 1.14859,-0.5743 1.50586,-2.31804 2.72413,-2.72413 6.01604,-2.00535 11.71964,-3.81672 17.70684,-6.81032 1.08965,-0.54483 2.99654,0.54482 4.08619,0 0.40609,-0.20305 -0.40609,-1.15902 0,-1.36207 0.81218,-0.40609 1.91195,0.40609 2.72413,0 0.40609,-0.20304 0,-0.90804 0,-1.36206 0.45402,-0.45402 0.78777,-1.07492 1.36206,-1.36207 1.40493,-0.70246 0.28293,-30.64126 1.24431,-32.56401 1.43628,-2.87257 0.65859,18.40254 2.84189,16.21924 0.32104,-0.32104 0.95597,0.20305 1.36206,0 5.66859,-2.83429 -1.4561,0.094 1.36206,-2.72413 0.68104,-0.68103 2.0431,-0.68103 2.72413,-1.36206 2.81816,-2.81816 -4.30652,0.11016 1.36207,-2.72413 0.40609,-0.20305 1.04102,0.32104 1.36206,0 0.19209,-0.19209 0.1397,-3.8068 0,-4.08619 -0.80916,-1.61832 -7.77825,-4.65998 -8.17238,-5.44826 -0.40609,-0.81218 0.40608,-1.91195 0,-2.72413 -0.85799,-1.71597 -4.0862,0.97172 -4.0862,-6.81032"
       id="path3829"
       inkscape:connector-curvature="0"
       sodipodi:nodetypes="csssssscsssssssscccsssccsssssssssssssssssssssssssssssssscsssscsscsssssssscscc" />
    <path
       style="fill:#203620;stroke:none;stroke-width:1px;stroke-linecap:butt;stroke-linejoin:miter;stroke-opacity:1;fill-opacity:0.12019230000000000;filter:url(#filter3916)"
       d="m 89.470604,156.12382 c -0.553627,-0.27741 -0.118782,-0.32269 -0.255387,-0.5959 -0.05674,-0.11348 -0.11352,-0.0568 -0.170258,-0.17026 -0.05967,-0.11935 -0.01927,-0.52631 0.08513,-0.5959 0.254461,-0.16965 0.535854,0.03 0.766161,-0.0851 0.276484,-0.13825 1.167891,-0.13966 1.447194,0 0.02538,0.0127 -0.02538,0.0724 0,0.0851 0.387531,0 0.0049,-0.0401 0.255387,0.0851 0.05159,0.0258 0.219714,0.0495 0.255387,0.0851 0.02006,0.0201 -0.01269,0.0598 0,0.0851 0.03589,0.0718 0.150792,0.0924 0.170258,0.17026 0.03441,0.13765 -0.05269,0.29391 0,0.42565 -0.0472,0.21083 0.191935,0.21361 0.255387,0.34051 0.08159,0.16318 -0.06851,0.30626 0.170258,0.42565 0.218443,0.10922 2.772875,0.26751 3.064645,0.17025 0.14541,-0.0485 0.64986,-0.30934 0.766161,-0.42564 0.48225,-0.48225 0.732886,-1.2456 0.936419,-1.95797 0.08716,-0.30505 0.05243,-0.64185 0.170258,-0.93642 0.05269,-0.13173 0.186484,-0.21649 0.255387,-0.34051 0.185713,-0.33429 0.484187,-1.46671 0.93642,-1.61745 0.363984,-0.12133 2.027759,-0.1563 2.383609,-0.0851 0.93706,0.18741 2.77286,1.9612 3.14978,2.80925 0.0839,0.18878 0.10493,0.39993 0.17025,0.59591 0.10029,0.30084 0.33215,0.95315 0.17026,1.27693 -0.19505,0.39012 -1.94412,0.95877 -2.38361,1.02155 -0.0843,0.012 -0.17353,-0.0234 -0.25539,0 -0.5959,0.17026 -0.12769,0.12769 -0.51077,0.25539 -0.15725,0.0524 -0.0404,-0.1299 -0.25539,0.0851 -0.0201,0.0201 0.0201,0.0651 0,0.0851 -0.0201,0.0201 -0.0724,-0.0254 -0.0851,0 -0.25257,0.50513 0.41215,1.76072 0.59591,2.12822 0.19216,0.38434 0.24788,0.80074 0.42564,1.19181 0.11565,0.25442 0.19673,0.52651 0.34052,0.76616 0.0413,0.0688 0.13864,0.0965 0.17025,0.17026 0.057,0.13299 0.0394,0.28838 0.0851,0.42564 0.0593,0.17778 0.21858,0.28989 0.25539,0.51078 0.0557,0.33392 0.0624,1.13493 0,1.44719 -0.0272,0.13597 -0.31849,0.47993 -0.34052,0.51077 -0.31234,0.43729 -0.69578,0.55949 -1.1918,0.76617 -0.75118,0.31299 -0.25487,0.21655 -1.02155,0.42564 -0.437733,0.11938 -0.855239,0.17184 -1.276934,0.34052 -0.166632,0.0666 -0.361448,0.0707 -0.510774,0.17025 -0.02361,0.0157 0.02007,0.0651 0,0.0851 -0.136361,0.13636 -0.324854,0.13894 -0.425646,0.34052 -0.05076,0.10152 0.02753,0.2304 0,0.34052 -0.12331,0.49324 -0.198252,1.20695 0,1.70258 0.06138,0.15344 0.41626,0.95519 0.340517,1.10667 -0.06345,0.12691 -0.155062,0.24019 -0.255387,0.34052 -0.110761,0.11076 -1.900153,0.89841 -2.128226,0.93642 -0.08397,0.014 -0.176347,-0.0316 -0.255387,0 -0.425645,0.17026 0,0.12769 -0.255387,0.25539 -0.08026,0.0401 -0.180724,0.0353 -0.255387,0.0851 -0.02361,0.0157 0.01269,0.0598 0,0.0851 -0.06764,0.13529 -0.249893,0.19498 -0.340516,0.25539 -0.196879,0.13125 -0.274725,0.35985 -0.425646,0.51077 -0.02007,0.0201 -0.06506,-0.0201 -0.08513,0 -0.115117,0.11512 -0.14254,0.41179 -0.340516,0.51078 -0.05076,0.0254 -0.130127,-0.0401 -0.170258,0 -0.02007,0.0201 0.02007,0.0651 0,0.0851 -0.02482,0.0248 -0.296249,0.0704 -0.340516,0.0851 -0.616625,0.20554 0.134215,-0.0246 -0.255387,0.17026 -0.05076,0.0254 -0.119497,-0.0254 -0.170258,0 -0.218686,0.10934 -0.291548,0.14577 -0.510774,0.25538 -0.170061,0.085 -0.686901,0 -0.595903,0 0.428858,0 -0.09147,-0.0127 -0.170258,-0.17026 -0.05374,-0.10747 0.08172,-0.42905 0,-0.51077 -0.02007,-0.0201 -0.06506,0.0201 -0.08513,0 -0.04013,-0.0401 0.02538,-0.1195 0,-0.17026 -0.06268,-0.12536 -0.112948,-0.11295 -0.170258,-0.17026 -0.04013,-0.0401 0.02538,-0.11949 0,-0.17025 -0.01344,-0.0269 -0.164679,-0.24981 -0.170258,-0.25539 -0.04013,-0.0401 -0.116418,0.0179 -0.170258,0 -0.120391,-0.0401 -0.250783,-0.0805 -0.340517,-0.17026 -0.02006,-0.0201 0.02007,-0.0651 0,-0.0851 -0.04013,-0.0401 -0.119496,0.0254 -0.170258,0 -0.06652,-0.0333 -0.411803,-0.46925 -0.425645,-0.51077 -0.01605,-0.0481 0.03419,-0.2212 0,-0.25539 -0.02007,-0.0201 -0.06506,0.0201 -0.08513,0 -0.05675,-0.0567 0.05675,-0.28376 0,-0.34052 -0.02007,-0.0201 -0.06506,0.0201 -0.08513,0 -0.02792,-0.0279 -0.138494,-0.27698 -0.170258,-0.34051 -0.02538,-0.0508 0.04013,-0.13013 0,-0.17026 -0.02838,-0.0284 -0.227011,-0.0568 -0.255387,-0.0851 -0.02006,-0.0201 0.02007,-0.0651 0,-0.0851 -0.02006,-0.0201 -0.06506,0.0201 -0.08513,0 -0.02007,-0.0201 0.01269,-0.0598 0,-0.0851 -0.03589,-0.0718 -0.134364,-0.0985 -0.170258,-0.17025 -0.126429,-0.25286 -0.08513,-0.38397 -0.08513,-0.51078 0,-0.14188 0,-0.28376 0,-0.42564 0,-0.0284 -0.02838,-0.0851 0,-0.0851 0.02838,0 0.02838,0.0851 0,0.0851 -0.08026,0 -0.09847,-0.13437 -0.170258,-0.17026 -0.02538,-0.0127 -0.06506,0.0201 -0.08513,0 -0.02007,-0.0201 0.02007,-0.0651 0,-0.0851 -0.03935,-0.0393 -0.203988,0.0257 -0.255387,0 -0.09583,-0.0479 -0.207978,-0.33083 -0.255387,-0.42565 -0.02538,-0.0508 0.02538,-0.11949 0,-0.17025 -0.05676,-0.11352 -0.113498,-0.0567 -0.170258,-0.17026 -0.0258,-0.0516 -0.04946,-0.21972 -0.08513,-0.25539 -0.176135,-0.17613 0.0069,0.26916 -0.170258,-0.0851 -0.04365,-0.0873 -0.04148,-0.25322 -0.08513,-0.34051 -0.03589,-0.0718 -0.125738,-0.10348 -0.170258,-0.17026 -0.04978,-0.0747 -0.02168,-0.19194 -0.08513,-0.25539 -0.0523,-0.0523 -0.198378,-0.0562 -0.255387,-0.17026 -0.01269,-0.0254 0.02007,-0.0651 0,-0.0851 -0.06795,-0.0679 -0.336333,0.0447 -0.425646,0 -0.178867,-0.0894 0.0017,-0.1686 -0.08513,-0.25538 -0.02007,-0.0201 -0.06506,0.0201 -0.08513,0 -0.07094,-0.0709 0.07094,-0.35471 0,-0.42565 -0.02007,-0.0201 -0.06506,0.0201 -0.08513,0 -0.0065,-0.007 -0.116911,-0.79794 -0.170258,-0.85129 -0.193044,-0.19304 -0.753627,-0.15772 -0.766161,-0.17026 -0.117979,-0.11798 0.05486,-0.68669 0,-0.85129 -0.046,-0.13799 -0.104044,-0.29322 -0.170258,-0.42564 -0.0681,-0.13621 0.0681,-0.37457 0,-0.51078 -0.0499,-0.0998 -0.101021,-0.3564 -0.170258,-0.42564 -0.02007,-0.0201 -0.06506,0.0201 -0.08513,0 -0.06934,-0.0693 -0.04569,-0.64784 -0.08513,-0.76616 -0.01269,-0.0381 -0.06718,-0.0492 -0.08513,-0.0851 -0.181475,-0.36295 0.143929,-2.24583 0.340516,-2.639 0.106314,-0.21263 0.08682,-0.68273 0.255387,-0.85129 0.04013,-0.0401 0.116418,0.0179 0.170258,0 0.120391,-0.0401 0.217402,-0.13948 0.340516,-0.17026 0.07189,-0.018 0.266097,0.0372 0.340516,0 0.389602,-0.1948 -0.361238,0.0353 0.255387,-0.17026 0.05384,-0.0179 0.130128,0.0401 0.170258,0 0.02007,-0.0201 -0.02007,-0.0651 0,-0.0851 0.08026,-0.0803 0.2304,0.0275 0.340517,0 0.105715,-0.0264 0.441918,-0.18653 0.510774,-0.25538 0.02006,-0.0201 -0.02007,-0.0651 0,-0.0851 0.04013,-0.0401 0.130128,0.0401 0.170258,0 0.02007,-0.0201 -0.02006,-0.0651 0,-0.0851 0.111344,-0.11135 0.258168,-0.17582 0.340516,-0.34052 0.02538,-0.0508 -0.04013,-0.13013 0,-0.17026 0.02007,-0.0201 0.05975,0.0127 0.08513,0 0.182684,-0.0913 0.0039,-0.093 0.08513,-0.25538 0.01269,-0.0254 0.05675,0 0.08513,0 0.02838,-0.0568 0.06506,-0.11007 0.08513,-0.17026 0.009,-0.0269 0,-0.0567 0,-0.0851 0.02838,-0.0284 0.06718,-0.0492 0.08513,-0.0851 0.02538,-0.0508 -0.05269,-0.19134 0,-0.17026 0.153627,0.0615 0.351649,0.40338 0.425645,0.25539 0.223902,-0.4478 -0.613129,-0.42565 -0.255387,-0.42565"
       id="path3914"
       inkscape:connector-curvature="0" />
    <path
       style="fill:none;stroke:#000000;stroke-width:1px;stroke-linecap:butt;stroke-linejoin:miter;stroke-opacity:1"
       d="M 66.230381,165.1475 64.612929,148.12169"
       id="path3920"
       inkscape:connector-curvature="0" />
    <path
       style="fill:url(#linearGradient3868);fill-opacity:1;stroke:#000000;stroke-width:1px;stroke-linecap:butt;stroke-linejoin:miter;stroke-opacity:1"
       d="m 245.82376,204.05707 c -29.83988,12.78852 -31.26083,24.15609 -31.26083,24.15609 l -9.94662,48.31219 -21.3142,35.52366 -29.83988,32.68177 -5.68378,24.15609 -5.68379,32.68177 -2.84189,19.89325 25.57703,1.42095 17.05136,-8.52568 7.10474,-25.57703 c 2.72294,-21.25581 17.79462,-23.98849 35.52366,-22.73515 l -2.84189,22.73515 c 17.91238,0.16375 9.24602,21.59049 9.94662,35.52366 5.8313,14.12149 4.68625,26.60808 17.05137,51.15408 11.36757,9.88292 22.73514,22.49687 36.9446,38.36556 l 8.52568,28.41893 25.57704,11.36757 c 13.35776,-1.89029 28.46853,4.98446 38.36556,-14.20947 26.20412,-0.66044 23.33148,16.12518 32.68177,25.57704 l 34.10272,-7.10473 4.26284,-8.52568 21.3142,9.94663 c 0,0 -2.84189,4.26284 -9.94663,5.68378 -7.10473,1.42095 -18.4723,1.42095 -24.15609,2.8419 -5.68379,1.42094 -15.63041,4.26284 -15.63041,4.26284 l -11.36757,24.15609 c -19.07562,14.68311 -15.8966,29.36623 -12.78852,44.04934 l 51.15407,44.04935 21.3142,15.63041 c -1.69036,8.45178 -17.72034,65.86657 -22.73514,59.67976 -5.21725,-6.43657 -52.57503,25.57703 -52.57503,25.57703 l -45.47028,41.20746 15.6304,17.05135 c 0,0 57.20292,5.33249 42.62841,22.73515 -7.91229,9.44764 49.73312,-5.68379 49.73312,-5.68379 l 73.88923,-22.73514 31.26082,-19.89325 -28.41893,22.73514 -42.6284,11.36757 63.9426,-31.26082 22.73514,-25.57704 9.94663,-52.57502 c 0,0 7.10473,-35.52367 9.94663,-44.04935 2.84189,-8.52568 18.4723,-11.36757 25.57703,-17.05136 7.10474,-5.68378 24.1561,-2.84189 24.1561,-2.84189 l 32.68177,-5.68379 28.41893,-11.36757 0,-38.36556 -4.26284,-21.3142 7.10473,-11.36757 4.26284,-22.73514 8.52568,-15.63042 -2.84189,-22.73514 1.42095,-14.20947 -17.05136,-9.94662 -89.51964,19.89325 -32.68177,9.94663 -49.73313,14.20946 15.63041,-19.89325 -46.89124,-2.8419 4.26284,-14.20946 -28.41893,-7.10473 -28.41893,11.36757 -44.04934,-2.84189 -29.83988,-4.26284 -2.8419,-11.36758 -14.20946,-12.78852 -4.26284,-28.41893 14.20947,-21.3142 21.31419,-2.84189 -5.68378,45.47029 22.73514,-5.68378 18.47231,-12.78853 1.42094,-21.31419 0,-8.52568 0,-9.94663 -19.89325,-12.78852 7.10474,-28.41893 -7.10474,-34.10272 12.78852,-9.94662 -4.26284,-21.3142 12.78852,-21.3142 34.10272,-15.63042 4.26284,12.78852 c 0,0 35.52366,-1.42094 41.20745,-8.52568 5.68379,-7.10473 14.20947,-29.83987 14.20947,-29.83987 0,0 12.78852,4.26284 21.31419,4.26284 8.52568,0 4.26284,5.68378 4.26284,5.68378 l 26.99799,8.52568 15.63041,-11.36757 11.36757,0 -18.4723,-7.10473 c 0,0 -56.83786,-39.78651 -63.9426,-41.20746 -7.10473,-1.42094 -78.15206,-34.10272 -86.67774,-21.3142 -10.5748,15.86221 -52.57502,1.42095 -52.57502,1.42095 l -53.99597,-1.42094 z"
       id="path3832"
       inkscape:connector-curvature="0"
       sodipodi:nodetypes="cccccccccccccccccccccccsscccccscccsccccccccssccccccccccccccccccccccccccccccccccccccccscscccccssccc" />
  </g>
</svg>
